# xmcd
#
# Track frame offsets:
#	150
#	21086
#	46261
#	66756
#	78230
#	99257
#	122472
#	143662
#	162416
#	187125
#	207556
#	224708
#	246510
#	276172
#	309425
#
# Disc length: 4438 seconds
#
# Revision: 2
# Processed by: cddbd v1.5.1PL2 Copyright (c) Steve Scherf et al.
# Submitted via: audiograbber 1.83.01
#
DISCID=dc11540f
DTITLE=J.K.Rowling - Harry Potter og Føniksorderen CD 23
DYEAR=2003
DGENRE=Lydbok/Fantasy
TTITLE0=Harry Potter og Føniksorderen CD 23 Spor 2301
TTITLE1=Harry Potter og Føniksorderen CD 23 Spor 2302
TTITLE2=Harry Potter og Føniksorderen CD 23 Spor 2303
TTITLE3=Harry Potter og Føniksorderen CD 23 Spor 2304
TTITLE4=Harry Potter og Føniksorderen CD 23 Spor 2305
TTITLE5=Harry Potter og Føniksorderen CD 23 Spor 2306
TTITLE6=Harry Potter og Føniksorderen CD 23 Spor 2307
TTITLE7=Harry Potter og Føniksorderen CD 23 Spor 2308
TTITLE8=Harry Potter og Føniksorderen CD 23 Spor 2309
TTITLE9=Harry Potter og Føniksorderen CD 23 Spor 2310
TTITLE10=Harry Potter og Føniksorderen CD 23 Spor 2311
TTITLE11=Harry Potter og Føniksorderen CD 23 Spor 2312
TTITLE12=Harry Potter og Føniksorderen CD 23 Spor 2313
TTITLE13=Harry Potter og Føniksorderen CD 23 Spor 2314
TTITLE14=Harry Potter og Føniksorderen CD 23 Spor 2315
EXTD=
EXTT0=
EXTT1=
EXTT2=
EXTT3=
EXTT4=
EXTT5=
EXTT6=
EXTT7=
EXTT8=
EXTT9=
EXTT10=
EXTT11=
EXTT12=
EXTT13=
EXTT14=
PLAYORDER=
